<?xml version="1.0" encoding="UTF-8" standalone="no"?>
<svg
   width="200"
   height="200"
   viewBox="0 0 200 200"
   version="1.1"
   id="svg14"
   xmlns="http://www.w3.org/2000/svg"
   xmlns:svg="http://www.w3.org/2000/svg">
  <defs
     id="defs4" />
  <rect
     style="fill:#2c3e50;fill-opacity:1"
     id="rect1371"
     width="200"
     height="200"
     x="0"
     y="0" />
  <g
     aria-label="♭"
     transform="matrix(0.881937,0,0,1.46412,-1.5323996,-20.191429)"
     id="text284"
     style="fill:#3498db;stroke-width:12.0017">
    <path
       d="m 106.03053,140.04911 c -28.304922,0 -50.358446,-4.97023 -66.160578,-14.91068 -15.802132,-9.9966 -23.703197,-23.98063 -23.703197,-41.952058 0,-19.431608 7.597178,-34.117638 22.791535,-44.058086 15.194358,-9.996608 37.725419,-14.994912 67.59318,-14.994912 18.14641,0 37.6386,1.432098 58.47657,4.296294 l -0.0725,24.50093 -7.74183,0.181708 -3.90711,-14.657948 c -6.07775,-2.414912 -13.15397,-4.268216 -21.22869,-5.559912 -7.9879,-1.347858 -16.14943,-2.021786 -24.48462,-2.021786 -22.314001,0 -38.593669,4.240135 -48.839008,12.720404 -10.245338,8.480269 -15.368007,21.621878 -15.368007,39.424825 0,16.398933 5.339731,28.922771 16.019193,37.571521 10.766288,8.64876 26.39477,12.97313 46.885442,12.97313 9.89804,0 19.23172,-0.75817 28.00103,-2.2745 8.76932,-1.57251 13.64658,-3.5496 18.76924,-6.133 l 4.11019,-17.05248 7.62863,0.13769 0.0335,26.89082 c -19.10149,3.53812 -36.83635,4.91798 -58.80304,4.91798 z"
       style="font-size:214.516px;font-family:'Liberation Serif';-inkscape-font-specification:'Liberation Serif, Normal';fill:#3498db;fill-opacity:1;stroke-width:17.8763"
       id="path286" />
    <path
       d="m 174.33383,29.651486 0.0157,66.884096 h 0.21097 c 7.96991,-11.110995 15.3538,-16.666492 22.15167,-16.666492 10.64217,0.140645 17.10236,5.993487 17.36972,18.283915 -1.4881,21.900505 -24.65125,32.188625 -43.66719,36.013675 l 0.0792,-105.017941 c 1.57147,0.18491 2.46522,0.292384 3.84,0.502747 z m 0.0157,74.408634 v 24.96457 c 19.59661,-4.6413 29.39491,-14.11143 29.39491,-28.41039 0.60947,-8.063675 -2.85979,-12.30648 -10.40777,-12.728416 -5.57893,0 -11.90798,5.391412 -18.98714,16.174236 z"
       id="path1239" />
  </g>
</svg>
