<?xml version="1.0" encoding="UTF-8" standalone="no"?>
<svg
   width="200"
   height="200"
   viewBox="0 0 200 200"
   version="1.1"
   id="svg14"
   xmlns="http://www.w3.org/2000/svg"
   xmlns:svg="http://www.w3.org/2000/svg">
  <defs
     id="defs4" />
  <rect
     style="fill:#2c3e50;fill-opacity:1"
     id="rect1371"
     width="200"
     height="200"
     x="0"
     y="0" />
  <g
     aria-label="C"
     transform="scale(0.8728802,1.1456326)"
     id="text168"
     style="font-size:227.855px;fill:#3498db;stroke-width:18.988">
    <path
       d="m 88.213709,162.35572 c -24.995811,0 -44.566711,-6.60889 -58.585134,-19.8856 C 15.610152,129.19341 8.0194281,110.8004 8.0194281,87.288019 c 0,-25.515013 7.2569519,-44.875318 20.6078309,-58.077853 13.42505,-13.276707 33.403893,-20.4813641 59.58645,-20.4813641 17.281971,0 36.810941,4.3597381 56.136001,8.7288021 l 0,26.186405 -13.7476,1.74576 -4.58253,-13.966082 c -9.79065,-6.675439 -17.95205,-8.728802 -30.932075,-8.728802 -17.207799,0 -29.708244,3.659676 -37.6446,14.414551 -7.936355,10.680703 -11.617602,27.630432 -11.617602,50.178583 0,20.842201 3.866676,36.379611 12.173889,47.282831 8.307213,10.90322 20.069969,14.69166 35.94268,14.69166 12.974788,0.48514 22.316188,-1.39592 32.077718,-9.60168 l 4.58252,-15.71184 13.7476,1.74576 0,27.93216 c -9.11824,2.55782 -15.70212,4.2338 -26.38282,6.08809 -10.68071,1.78012 -20.555912,2.64072 -29.753181,2.64072 z"
       style="font-weight:bold;font-family:'Liberation Serif';-inkscape-font-specification:'Liberation Serif, Bold'"
       id="path1890" />
  </g>
  <g
     aria-label="♭"
     transform="scale(0.92399586,1.0822559)"
     id="text1783"
     style="font-weight:bold;font-size:193.76px;font-family:'Liberation Serif';-inkscape-font-specification:'Liberation Serif, Bold';fill:#3498db;stroke-width:5">
    <path
       d="m 157.99249,23.36713 0.0169,87.51238 v 0 c 10.7224,-14.948285 16.09313,-23.221029 30.30316,-24.023897 14.31755,0.189219 18.36816,7.549117 19.1802,25.643557 -1.48781,31.55634 -32.9205,37.25251 -62.45089,47.40716 l -0.0196,-139.57842 c 6.29791,1.305976 7.89389,1.66713 12.9702,3.03922 z m 0.0169,101.37232 0.0527,22.5721 c 25.97414,-9.23996 36.74401,-13.49882 36.74401,-32.73606 0.13866,-11.39896 0,-14.783934 -10.82256,-14.783934 -7.50567,0 -16.45013,10.441124 -25.97414,24.947894 z"
       id="path1887" />
  </g>
</svg>
