<svg xmlns="http://www.w3.org/2000/svg" width="200" height="200" viewBox="0 0 200 200"><path d="M0 0h200v200H0z" style="fill:#ecf0f1;fill-opacity:1"/><g aria-label="C" style="font-size:227.855px;fill:#2980b9;stroke-width:18.988"><path d="M88.214 162.356c-24.996 0-44.567-6.61-58.585-19.886S8.019 110.8 8.019 87.288c0-25.515 7.257-44.875 20.608-58.078C42.052 15.933 62.031 8.73 88.214 8.73c17.282 0 36.81 4.36 56.136 8.729v26.186l-13.748 1.746-4.582-13.966c-9.791-6.676-17.952-8.73-30.932-8.73-17.208 0-29.709 3.66-37.645 14.415-7.936 10.681-11.618 27.63-11.618 50.179 0 20.842 3.867 36.38 12.174 47.283s20.07 14.692 35.943 14.692c12.975.485 22.316-1.396 32.078-9.602l4.582-15.712 13.748 1.746v27.932c-9.119 2.558-15.702 4.234-26.383 6.088-10.68 1.78-20.556 2.64-29.753 2.64" style="font-weight:700;font-family:&quot;Liberation Serif&quot;;-inkscape-font-specification:&quot;Liberation Serif, Bold&quot;" transform="scale(.87288 1.14563)"/></g><path d="m157.992 23.367.017 87.513c10.723-14.949 16.094-23.222 30.304-24.024 14.317.189 18.368 7.549 19.18 25.643-1.488 31.557-32.92 37.253-62.451 47.407l-.02-139.578c6.298 1.306 7.894 1.667 12.97 3.04m.017 101.372.053 22.573c25.974-9.24 36.744-13.5 36.744-32.737.139-11.398 0-14.783-10.822-14.783-7.506 0-16.45 10.44-25.975 24.947" aria-label="♭" style="font-weight:700;font-size:193.76px;font-family:&quot;Liberation Serif&quot;;-inkscape-font-specification:&quot;Liberation Serif, Bold&quot;;fill:#2980b9;stroke-width:5" transform="scale(.924 1.08226)"/></svg>